<svg xmlns="http://www.w3.org/2000/svg" xmlns:xlink="http://www.w3.org/1999/xlink" fill="#000000" height="150px" width="150px" version="1.1" id="Layer_1" viewBox="0 0 512 512" xml:space="preserve">
<g>
	<g>
		<path d="M381.879,87.919l-5.905,22.04l-23.473-31.298l-47.949,11.987l-48.57-36.428l-48.57,36.427l-47.949-11.987l-23.309,31.081    
                l-6.102-22.775L0,121.814l90.022,335.964l130.051-34.847l-5.186-19.354l41.096-8.22l41.305,8.261l-5.43,20.265l130.121,33.766    
                L512,121.684L381.879,87.919z M82.838,192.542l-8.712-32.512l37.932-10.164l8.712,32.512L82.838,192.542z M91.55,225.056    
                l37.932-10.164l8.711,32.513l-37.931,10.164L91.55,225.056z M108.973,290.08l37.931-10.164l8.711,32.513l-37.93,10.164    
                L108.973,290.08z M135.109,387.62l-8.712-32.512l37.931-10.164l8.712,32.512L135.109,387.62z M206.156,370.998l-58.927-219.924    
                l25.754-34.338l23.333,5.833l40.386,242.32L206.156,370.998z M275.262,364.889l40.386-242.32l23.334-5.833l25.917,34.555    
                L306.017,371.04L275.262,364.889z M387.695,390.523l-32.512-8.711l8.711-32.513l32.513,8.711L387.695,390.523z M405.118,325.498    
                l-32.513-8.712l8.711-32.512l32.513,8.711L405.118,325.498z M422.542,260.47l-32.513-8.71l8.711-32.513l32.513,8.711    
                L422.542,260.47z M407.452,186.735l8.711-32.513l32.513,8.711l-8.711,32.512L407.452,186.735z"/>
	</g>
</g>
</svg>